<?xml version="1.0" encoding="UTF-8"?>
<svg xmlns="http://www.w3.org/2000/svg" width="256" height="256" viewBox="0 0 256 256">
  <defs>
    <linearGradient id="bg" x1="40" y1="28" x2="220" y2="232" gradientUnits="userSpaceOnUse">
      <stop offset="0" stop-color="#1f7a8c"/>
      <stop offset="0.48" stop-color="#1f5f76"/>
      <stop offset="1" stop-color="#263647"/>
    </linearGradient>
    <linearGradient id="shield" x1="82" y1="52" x2="178" y2="210" gradientUnits="userSpaceOnUse">
      <stop offset="0" stop-color="#ffffff"/>
      <stop offset="1" stop-color="#d7ecff"/>
    </linearGradient>
    <linearGradient id="path" x1="66" y1="160" x2="190" y2="86" gradientUnits="userSpaceOnUse">
      <stop offset="0" stop-color="#66d56f"/>
      <stop offset="0.52" stop-color="#ffd15a"/>
      <stop offset="1" stop-color="#ff6868"/>
    </linearGradient>
    <filter id="shadow" x="-20%" y="-20%" width="140%" height="150%">
      <feDropShadow dx="0" dy="10" stdDeviation="10" flood-color="#0b1a24" flood-opacity="0.32"/>
    </filter>
  </defs>

  <rect x="20" y="20" width="216" height="216" rx="48" fill="url(#bg)"/>
  <circle cx="74" cy="69" r="28" fill="#46d9a8" opacity="0.18"/>
  <circle cx="188" cy="192" r="36" fill="#ffcd57" opacity="0.14"/>

  <path
    d="M128 42 188 66v49c0 42-23 77-60 99-37-22-60-57-60-99V66Z"
    fill="#0e2635"
    opacity="0.28"
    filter="url(#shadow)"
  />
  <path
    d="M128 36 194 62v53c0 48-27 88-66 111-39-23-66-63-66-111V62Z"
    fill="url(#shield)"
  />
  <path
    d="M128 54 176 73v40c0 34-18 63-48 82-30-19-48-48-48-82V73Z"
    fill="#f7fbff"
    stroke="#b8d3e8"
    stroke-width="5"
  />

  <path
    d="M80 151c22 7 31-39 54-30 18 7 12 41 42 32"
    fill="none"
    stroke="url(#path)"
    stroke-width="14"
    stroke-linecap="round"
    stroke-linejoin="round"
  />
  <path
    d="M93 104h70"
    stroke="#20394d"
    stroke-width="14"
    stroke-linecap="round"
  />
  <path
    d="M102 104h24"
    stroke="#62d873"
    stroke-width="14"
    stroke-linecap="round"
  />

  <circle cx="80" cy="151" r="16" fill="#42c969" stroke="#ffffff" stroke-width="6"/>
  <circle cx="134" cy="121" r="16" fill="#ffd15a" stroke="#ffffff" stroke-width="6"/>
  <circle cx="176" cy="153" r="16" fill="#ef5c5c" stroke="#ffffff" stroke-width="6"/>

  <path
    d="M111 151 124 164 151 134"
    fill="none"
    stroke="#173045"
    stroke-width="10"
    stroke-linecap="round"
    stroke-linejoin="round"
  />
</svg>
